{
    "accessors" : [
        {
            "bufferView" : 0,
            "componentType" : 5123,
            "count" : 3864,
            "max" : [
                2273
            ],
            "min" : [
                0
            ],
            "type" : "SCALAR"
        },
        {
            "bufferView" : 1,
            "componentType" : 5126,
            "count" : 2274,
            "max" : [
                227.1763916015625,
                225.83572387695312,
                -10.778629302978516
            ],
            "min" : [
                -230.73074340820312,
                -219.28878784179688,
                -57.639286041259766
            ],
            "type" : "VEC3"
        },
        {
            "bufferView" : 2,
            "componentType" : 5126,
            "count" : 2274,
            "max" : [
                0.9999895691871643,
                0.9995477199554443,
                1.0
            ],
            "min" : [
                -0.9999690651893616,
                -0.99993896484375,
                -1.0
            ],
            "type" : "VEC3"
        },
        {
            "bufferView" : 3,
            "componentType" : 5126,
            "count" : 2274,
            "max" : [
                1.0,
                1.0,
                1.0,
                1.0
            ],
            "min" : [
                -1.0,
                -1.0,
                -1.0,
                -1.0
            ],
            "type" : "VEC4"
        },
        {
            "bufferView" : 4,
            "componentType" : 5126,
            "count" : 2274,
            "max" : [
                1.0,
                1.0
            ],
            "min" : [
                0.0,
                0.0
            ],
            "type" : "VEC2"
        }
    ],
    "asset" : {
        "generator" : "Khronos Blender glTF 2.0 exporter",
        "version" : "2.0"
    },
    "bufferViews" : [
        {
            "buffer" : 0,
            "byteLength" : 7728,
            "byteOffset" : 0,
            "target" : 34963
        },
        {
            "buffer" : 0,
            "byteLength" : 27288,
            "byteOffset" : 7728,
            "target" : 34962
        },
        {
            "buffer" : 0,
            "byteLength" : 27288,
            "byteOffset" : 35016,
            "target" : 34962
        },
        {
            "buffer" : 0,
            "byteLength" : 36384,
            "byteOffset" : 62304,
            "target" : 34962
        },
        {
            "buffer" : 0,
            "byteLength" : 18192,
            "byteOffset" : 98688,
            "target" : 34962
        }
    ],
    "buffers" : [
        {
            "byteLength" : 116880,
            "uri" : "data:application/octet-stream;base64,"
        }
    ],
    "materials" : [
        {
            "name" : "lambert2SG",
            "pbrMetallicRoughness" : {
                "baseColorFactor" : [
                    0.6400000190734865,
                    0.6400000190734865,
                    0.6400000190734865,
                    1.0
                ],
                "metallicFactor" : 0.0
            }
        }
    ],
    "meshes" : [
        {
            "name" : "GovIsle_Large",
            "primitives" : [
                {
                    "attributes" : {
                        "NORMAL" : 2,
                        "POSITION" : 1,
                        "TANGENT" : 3,
                        "TEXCOORD_0" : 4
                    },
                    "indices" : 0,
                    "material" : 0
                }
            ]
        }
    ],
    "nodes" : [
        {
            "name" : "Camera",
            "rotation" : [
                0.483536034822464,
                0.33687159419059753,
                -0.20870360732078552,
                0.7804827094078064
            ],
            "translation" : [
                7.481131553649902,
                5.34366512298584,
                6.5076398849487305
            ]
        },
        {
            "mesh" : 0,
            "name" : "GovIsle_Large",
            "rotation" : [
                0.7071068286895752,
                0.0,
                -0.0,
                0.7071067094802856
            ]
        },
        {
            "name" : "Lamp",
            "rotation" : [
                0.16907575726509094,
                0.7558802962303162,
                -0.27217137813568115,
                0.570947527885437
            ],
            "scale" : [
                1.0,
                1.0,
                0.9999999403953552
            ],
            "translation" : [
                4.076245307922363,
                5.903861999511719,
                -1.0054539442062378
            ]
        }
    ],
    "scene" : 0,
    "scenes" : [
        {
            "name" : "Scene",
            "nodes" : [
                1,
                2,
                0
            ]
        }
    ]
}
